<?xml version="1.0" encoding="UTF-8" standalone="no"?>
<!-- Created with Inkscape (http://www.inkscape.org/) -->

<svg
   width="512"
   height="512"
   viewBox="0 0 512 512"
   version="1.1"
   id="svg1"
   inkscape:version="1.3.2 (091e20e, 2023-11-25)"
   sodipodi:docname="icon.svg"
   xmlns:inkscape="http://www.inkscape.org/namespaces/inkscape"
   xmlns:sodipodi="http://sodipodi.sourceforge.net/DTD/sodipodi-0.dtd"
   xmlns="http://www.w3.org/2000/svg"
   xmlns:svg="http://www.w3.org/2000/svg">
  <sodipodi:namedview
     id="namedview1"
     pagecolor="#ffffff"
     bordercolor="#000000"
     borderopacity="0.25"
     inkscape:showpageshadow="2"
     inkscape:pageopacity="0.0"
     inkscape:pagecheckerboard="false"
     inkscape:deskcolor="#d1d1d1"
     inkscape:document-units="px"
     inkscape:zoom="1.0925234"
     inkscape:cx="211.89477"
     inkscape:cy="290.61162"
     inkscape:window-width="1464"
     inkscape:window-height="812"
     inkscape:window-x="0"
     inkscape:window-y="38"
     inkscape:window-maximized="0"
     inkscape:current-layer="layer1" />
  <defs
     id="defs1" />
  <g
     inkscape:label="pound_sign"
     inkscape:groupmode="layer"
     id="layer1">
    <path
       d="m 319.6,428.56 q -16.32,0 -29.76,-3.84 -12.96,-4.32 -24.48,-9.6 -11.52,-5.76 -22.08,-11.52 -10.08,-6.24 -20.16,-10.08 -10.08,-3.84 -21.12,-3.84 -15.36,0 -22.56,7.68 -7.2,7.2 -11.04,20.16 -0.48,2.4 -2.4,4.8 -1.44,2.4 -6.24,2.4 h -43.2 q -3.84,0 -6.72,-2.4 -2.4,-2.88 -2.4,-6.24 0.96,-31.2 15.84,-51.84 14.88,-20.64 38.4,-29.28 -0.48,-11.04 -2.4,-22.08 -1.44,-11.52 -3.36,-23.52 h -36.48 q -4.8,0 -8.16,-3.36 -3.36,-3.36 -3.36,-8.16 v -31.2 q 0,-5.28 3.36,-8.64 3.36,-3.36 8.16,-3.36 h 24.96 q -0.48,-6.24 -0.96,-12.48 0,-6.72 0,-13.92 0,-38.4 14.4,-66.24 14.4,-28.32 42.72,-43.200001 28.8,-15.36 70.56,-15.36 39.84,0 69.12,13.92 29.28,13.920001 45.6,39.360001 16.32,24.96 16.8,57.6 0,4.32 -3.36,7.68 -2.88,2.88 -7.2,2.88 h -54.24 q -5.76,0 -9.6,-2.88 -3.84,-2.88 -5.76,-9.12 -5.76,-23.04 -18.24,-35.04 -12,-12.48 -33.6,-12.48 -24.48,0 -36.48,17.28 -12,17.28 -12,46.08 0,6.72 0,13.44 0.48,6.24 1.44,12.48 h 77.28 q 4.8,0 8.16,3.36 3.36,3.36 3.36,8.64 v 31.2 q 0,4.8 -3.36,8.16 -3.36,3.36 -8.16,3.36 h -73.92 q 0.96,11.52 2.4,23.04 1.44,11.04 0.96,24 12.96,2.4 23.04,7.68 10.08,4.8 18.24,10.08 8.64,5.28 17.76,9.12 9.12,3.84 20.16,3.84 17.28,0 25.44,-8.64 8.64,-9.12 13.44,-22.56 0.96,-1.92 2.88,-4.32 2.4,-2.4 5.76,-2.4 h 38.4 q 4.32,0 6.72,2.88 2.4,2.4 2.4,6.24 -0.48,28.8 -12.96,48.96 -12,20.16 -31.2,30.72 -18.72,10.56 -40.8,10.56 z"
       id="pound_sign"
       style="font-weight:600;font-size:480px;font-family:rubik;-inkscape-font-specification:'rubik Semi-Bold';fill:#1565c0;fill-opacity:1"
       inkscape:label="pound_sign"
       aria-label="£" />
  </g>
</svg>
